<svg width="16" height="16" viewBox="0 0 16 16" fill="none" xmlns="http://www.w3.org/2000/svg">
<path d="M14.478 1.53393C13.9903 1.0463 13.202 1.0463 12.7144 1.53393L8.00137 6.23733L3.28797 1.52393C2.80034 1.0363 2.01205 1.0363 1.52441 1.52393C1.03678 2.01156 1.03678 2.79985 1.52441 3.28748L6.23764 8.0007L1.52441 12.7139C1.03678 13.2016 1.03678 13.9898 1.52441 14.4775C2.01205 14.9651 2.80034 14.9651 3.28797 14.4775L8.00119 9.76426L12.7144 14.4775C13.202 14.9651 13.9903 14.9651 14.478 14.4775C14.9656 13.9898 14.9656 13.2016 14.478 12.7139L9.76474 8.0007L14.478 3.28748C14.9556 2.80985 14.9556 2.01156 14.478 1.53393Z" fill="white" stroke="white" stroke-width="0.5"/>
</svg>
