<svg width="20" height="12" viewBox="0 0 20 12" fill="none" xmlns="http://www.w3.org/2000/svg">
<path d="M19.4543 5.6224C14.1949 -1.88919 5.77813 -1.85911 0.543412 5.62255C0.470312 5.73411 0.43094 5.86429 0.429717 5.99752C0.428496 6.13075 0.46558 6.26168 0.536544 6.37446C5.78259 13.8861 14.2709 13.8634 19.4611 6.36744C19.532 6.25588 19.5691 6.12616 19.5679 5.99385C19.5667 5.86169 19.5271 5.73274 19.4542 5.6224H19.4543ZM9.99903 9.71751C9.01288 9.71644 8.06747 9.3244 7.37019 8.62712C6.6729 7.92983 6.28085 6.98443 6.2798 5.99828C6.45408 1.07571 13.5449 1.07688 13.7183 5.99828C13.7173 6.98443 13.3251 7.92983 12.6278 8.62712C11.9305 9.3244 10.9853 9.71645 9.99911 9.71751H9.99903Z" fill="#7782AA"/>
</svg>
